<?xml version="1.0" encoding="UTF-8" standalone="no"?>
<!DOCTYPE svg PUBLIC "-//W3C//DTD SVG 1.1//EN"
 "http://www.w3.org/Graphics/SVG/1.1/DTD/svg11.dtd">
<!-- Generated by graphviz version 3.0.0 (20220226.1711)
 -->
<!-- Pages: 1 -->
<svg width="232pt" height="89pt"
 viewBox="0.00 0.00 231.59 89.30" xmlns="http://www.w3.org/2000/svg" xmlns:xlink="http://www.w3.org/1999/xlink">
<g id="page0,1_graph0" class="graph" transform="scale(1 1) rotate(0) translate(4 85.3)">
<polygon fill="white" stroke="transparent" points="-4,4 -4,-85.3 227.59,-85.3 227.59,4 -4,4"/>
<!-- start -->
<g id="node1" class="node">
<title>start</title>
<ellipse fill="white" stroke="white" cx="27" cy="-24.15" rx="27" ry="18"/>
</g>
<!-- q1 -->
<g id="node2" class="node">
<title>q1</title>
<ellipse fill="none" stroke="black" cx="111.15" cy="-24.15" rx="20.3" ry="20.3"/>
<text text-anchor="middle" x="111.15" y="-20.45" font-family="Times New Roman,serif" font-size="14.00">q1</text>
</g>
<!-- start&#45;&gt;q1 -->
<g id="edge1" class="edge">
<title>start&#45;&gt;q1</title>
<path fill="none" stroke="black" d="M54.44,-24.15C62.85,-24.15 72.19,-24.15 80.79,-24.15"/>
<polygon fill="black" stroke="black" points="80.79,-27.65 90.79,-24.15 80.79,-20.65 80.79,-27.65"/>
</g>
<!-- q1&#45;&gt;q1 -->
<g id="edge3" class="edge">
<title>q1&#45;&gt;q1</title>
<path fill="none" stroke="black" d="M104.27,-43.38C103.22,-53.33 105.51,-62.3 111.15,-62.3 114.67,-62.3 116.89,-58.79 117.8,-53.74"/>
<polygon fill="black" stroke="black" points="121.31,-53.46 118.02,-43.38 114.31,-53.31 121.31,-53.46"/>
<text text-anchor="middle" x="111.15" y="-66.1" font-family="Times New Roman,serif" font-size="14.00">b</text>
</g>
<!-- q2 -->
<g id="node3" class="node">
<title>q2</title>
<ellipse fill="none" stroke="black" cx="199.44" cy="-24.15" rx="20.27" ry="20.27"/>
<ellipse fill="none" stroke="black" cx="199.44" cy="-24.15" rx="24.3" ry="24.3"/>
<text text-anchor="middle" x="199.44" y="-20.45" font-family="Times New Roman,serif" font-size="14.00">q2</text>
</g>
<!-- q1&#45;&gt;q2 -->
<g id="edge2" class="edge">
<title>q1&#45;&gt;q2</title>
<path fill="none" stroke="black" d="M131.3,-24.15C141.18,-24.15 153.53,-24.15 164.93,-24.15"/>
<polygon fill="black" stroke="black" points="165.04,-27.65 175.04,-24.15 165.04,-20.65 165.04,-27.65"/>
<text text-anchor="middle" x="153.3" y="-27.95" font-family="Times New Roman,serif" font-size="14.00">a</text>
</g>
<!-- q2&#45;&gt;q1 -->
<g id="edge5" class="edge">
<title>q2&#45;&gt;q1</title>
<path fill="none" stroke="black" d="M179.21,-10.84C170.29,-6.21 159.44,-2.71 149.3,-5.15 145.37,-6.09 141.39,-7.53 137.56,-9.2"/>
<polygon fill="black" stroke="black" points="135.92,-6.11 128.51,-13.67 139.02,-12.38 135.92,-6.11"/>
<text text-anchor="middle" x="153.3" y="-8.95" font-family="Times New Roman,serif" font-size="14.00">b</text>
</g>
<!-- q2&#45;&gt;q2 -->
<g id="edge4" class="edge">
<title>q2&#45;&gt;q2</title>
<path fill="none" stroke="black" d="M190.95,-47.13C190.15,-57.41 192.98,-66.3 199.44,-66.3 203.59,-66.3 206.24,-62.65 207.4,-57.32"/>
<polygon fill="black" stroke="black" points="210.9,-57.3 207.93,-47.13 203.91,-56.93 210.9,-57.3"/>
<text text-anchor="middle" x="199.44" y="-70.1" font-family="Times New Roman,serif" font-size="14.00">a</text>
</g>
</g>
</svg>
