<?xml version="1.0" encoding="UTF-8" standalone="no"?>
<!DOCTYPE svg PUBLIC "-//W3C//DTD SVG 1.1//EN"
 "http://www.w3.org/Graphics/SVG/1.1/DTD/svg11.dtd">
<!-- Generated by graphviz version 3.0.0 (20220226.1711)
 -->
<!-- Pages: 1 -->
<svg width="232pt" height="154pt"
 viewBox="0.00 0.00 231.59 154.30" xmlns="http://www.w3.org/2000/svg" xmlns:xlink="http://www.w3.org/1999/xlink">
<g id="page0,1_graph0" class="graph" transform="scale(1 1) rotate(0) translate(4 150.3)">
<polygon fill="white" stroke="transparent" points="-4,4 -4,-150.3 227.59,-150.3 227.59,4 -4,4"/>
<!-- start -->
<g id="node1" class="node">
<title>start</title>
<ellipse fill="white" stroke="white" cx="27" cy="-93.15" rx="27" ry="18"/>
</g>
<!-- q3 -->
<g id="node2" class="node">
<title>q3</title>
<ellipse fill="none" stroke="black" cx="115.15" cy="-93.15" rx="20.3" ry="20.3"/>
<text text-anchor="middle" x="115.15" y="-89.45" font-family="Times New Roman,serif" font-size="14.00">q3</text>
</g>
<!-- start&#45;&gt;q3 -->
<g id="edge1" class="edge">
<title>start&#45;&gt;q3</title>
<path fill="none" stroke="black" d="M54.32,-93.15C63.91,-93.15 74.82,-93.15 84.67,-93.15"/>
<polygon fill="black" stroke="black" points="84.83,-96.65 94.83,-93.15 84.83,-89.65 84.83,-96.65"/>
</g>
<!-- q3&#45;&gt;q3 -->
<g id="edge3" class="edge">
<title>q3&#45;&gt;q3</title>
<path fill="none" stroke="black" d="M107.6,-111.99C106.32,-122.09 108.83,-131.3 115.15,-131.3 119.19,-131.3 121.68,-127.52 122.61,-122.15"/>
<polygon fill="black" stroke="black" points="126.11,-122.02 122.7,-111.99 119.11,-121.96 126.11,-122.02"/>
<text text-anchor="middle" x="115.15" y="-135.1" font-family="Times New Roman,serif" font-size="14.00">b</text>
</g>
<!-- q4 -->
<g id="node3" class="node">
<title>q4</title>
<ellipse fill="none" stroke="black" cx="203.44" cy="-59.15" rx="20.3" ry="20.3"/>
<text text-anchor="middle" x="203.44" y="-55.45" font-family="Times New Roman,serif" font-size="14.00">q4</text>
</g>
<!-- q3&#45;&gt;q4 -->
<g id="edge2" class="edge">
<title>q3&#45;&gt;q4</title>
<path fill="none" stroke="black" d="M134.96,-96.89C144.38,-97.94 155.78,-97.93 165.3,-94.15 171.94,-91.51 178.08,-87.07 183.38,-82.21"/>
<polygon fill="black" stroke="black" points="185.99,-84.55 190.5,-74.97 180.99,-79.64 185.99,-84.55"/>
<text text-anchor="middle" x="161.3" y="-99.95" font-family="Times New Roman,serif" font-size="14.00">a</text>
</g>
<!-- q4&#45;&gt;q3 -->
<g id="edge4" class="edge">
<title>q4&#45;&gt;q3</title>
<path fill="none" stroke="black" d="M183.88,-65.39C175.68,-68.23 165.96,-71.72 157.3,-75.15 152.65,-76.99 147.74,-79.03 143.01,-81.07"/>
<polygon fill="black" stroke="black" points="141.41,-77.95 133.65,-85.16 144.22,-84.36 141.41,-77.95"/>
<text text-anchor="middle" x="161.3" y="-78.95" font-family="Times New Roman,serif" font-size="14.00">a</text>
</g>
<!-- q4&#45;&gt;q4 -->
<g id="edge5" class="edge">
<title>q4&#45;&gt;q4</title>
<path fill="none" stroke="black" d="M195.89,-77.99C194.61,-88.09 197.13,-97.3 203.44,-97.3 207.49,-97.3 209.98,-93.52 210.91,-88.15"/>
<polygon fill="black" stroke="black" points="214.41,-88.02 210.99,-77.99 207.41,-87.96 214.41,-88.02"/>
<text text-anchor="middle" x="203.44" y="-101.1" font-family="Times New Roman,serif" font-size="14.00">b</text>
</g>
<!-- q5 -->
<g id="node4" class="node">
<title>q5</title>
<ellipse fill="none" stroke="black" cx="115.15" cy="-24.15" rx="20.27" ry="20.27"/>
<ellipse fill="none" stroke="black" cx="115.15" cy="-24.15" rx="24.3" ry="24.3"/>
<text text-anchor="middle" x="115.15" y="-20.45" font-family="Times New Roman,serif" font-size="14.00">q5</text>
</g>
<!-- q5&#45;&gt;q4 -->
<g id="edge6" class="edge">
<title>q5&#45;&gt;q4</title>
<path fill="none" stroke="black" d="M137.92,-32.98C149.16,-37.54 162.98,-43.14 174.94,-47.99"/>
<polygon fill="black" stroke="black" points="173.88,-51.34 184.46,-51.85 176.51,-44.85 173.88,-51.34"/>
<text text-anchor="middle" x="161.3" y="-47.95" font-family="Times New Roman,serif" font-size="14.00">a</text>
</g>
<!-- q5&#45;&gt;q4 -->
<g id="edge7" class="edge">
<title>q5&#45;&gt;q4</title>
<path fill="none" stroke="black" d="M139.35,-19.95C147.79,-19.38 157.23,-19.88 165.3,-23.15 172.12,-25.91 178.38,-30.6 183.74,-35.69"/>
<polygon fill="black" stroke="black" points="181.5,-38.41 190.91,-43.26 186.58,-33.6 181.5,-38.41"/>
<text text-anchor="middle" x="161.3" y="-26.95" font-family="Times New Roman,serif" font-size="14.00">b</text>
</g>
</g>
</svg>
